<svg width="18" height="18" viewBox="0 0 18 18" fill="none" xmlns="http://www.w3.org/2000/svg">
<g id="Group 587">
<path id="Vector" d="M15.3639 2.63602C13.6641 0.936176 11.404 0 9 0C6.59598 0 4.33586 0.936176 2.63602 2.63602C0.936141 4.33589 0 6.59602 0 9C0 11.404 0.936141 13.6641 2.63602 15.3639C4.33589 17.0638 6.59598 18 9 18C11.404 18 13.6641 17.0638 15.3639 15.3639C17.0638 13.6641 18 11.404 18 9C18 6.59602 17.0638 4.33593 15.3639 2.63602ZM9 16.9453C4.61893 16.9453 1.05469 13.3811 1.05469 9C1.05469 4.61893 4.61893 1.05469 9 1.05469C13.3811 1.05469 16.9453 4.61893 16.9453 9C16.9453 13.3811 13.3811 16.9453 9 16.9453Z" fill="#D0D5DD"/>
</g>
</svg>
