<svg width="24" height="24" viewBox="0 0 24 24" fill="none" xmlns="http://www.w3.org/2000/svg">
<g id="Group 587">
<path id="Vector" d="M17.7326 8.14923C17.4581 7.87473 17.0129 7.87473 16.7383 8.14928L10.5293 14.3583L7.26085 11.0898C6.9863 10.8153 6.54109 10.8153 6.26649 11.0898C5.9919 11.3644 5.9919 11.8096 6.26649 12.0842L10.0321 15.8498C10.1694 15.9871 10.3494 16.0557 10.5293 16.0557C10.7092 16.0557 10.8892 15.9871 11.0264 15.8498L17.7326 9.14359C18.0072 8.86904 18.0072 8.42382 17.7326 8.14923Z" fill="#98A2B3"/>
<path id="Vector_2" d="M20.4853 3.51469C18.2188 1.24823 15.2053 0 12 0C8.79464 0 5.78114 1.24823 3.51469 3.51469C1.24819 5.78119 0 8.79469 0 12C0 15.2053 1.24819 18.2188 3.51469 20.4853C5.78119 22.7518 8.79464 24 12 24C15.2053 24 18.2188 22.7518 20.4853 20.4853C22.7518 18.2188 24 15.2053 24 12C24 8.79469 22.7518 5.78123 20.4853 3.51469ZM12 22.5938C6.15858 22.5938 1.40625 17.8414 1.40625 12C1.40625 6.15858 6.15858 1.40625 12 1.40625C17.8414 1.40625 22.5938 6.15858 22.5938 12C22.5938 17.8414 17.8414 22.5938 12 22.5938Z" fill="#98A2B3"/>
</g>
</svg>
