<svg width="80" height="80" viewBox="0 0 80 80" fill="none" xmlns="http://www.w3.org/2000/svg">
<g clip-path="url(#clip0_9764_14203)">
<path d="M65.1137 10.0146H57.0793V12.6929C57.0793 16.5714 53.9238 19.7269 50.0453 19.7269H29.9541C26.0755 19.7269 22.9201 16.5714 22.9201 12.6929V10.0146H14.8857C13.5908 10.0146 12.541 11.0644 12.541 12.3593V77.6557C12.541 78.9506 13.5908 80.0004 14.8857 80.0004H65.1137C66.4086 80.0004 67.4584 78.9506 67.4584 77.6557V12.3593C67.4584 11.0643 66.4086 10.0146 65.1137 10.0146ZM34.1234 65.9522C35.0391 66.8677 35.0391 68.3524 34.1234 69.2681C33.2079 70.1836 31.7232 70.1836 30.8076 69.2681L28.6985 67.1588L26.5893 69.2681C25.6738 70.1837 24.1893 70.1837 23.2735 69.2681C22.3578 68.3525 22.3578 66.8679 23.2735 65.9522L25.3828 63.843L23.2735 61.7337C22.3578 60.8182 22.3578 59.3335 23.2735 58.4179C24.1892 57.5022 25.6737 57.5022 26.5893 58.4179L28.6985 60.5271L30.8076 58.4179C31.7231 57.5023 33.2077 57.5023 34.1234 58.4179C35.0391 59.3334 35.0391 60.818 34.1234 61.7337L32.0141 63.843L34.1234 65.9522ZM36.6348 44.154L29.1006 51.6882C28.1847 52.6042 26.7003 52.6035 25.7848 51.6882L23.2735 49.1769C22.3578 48.2614 22.3578 46.7767 23.2735 45.8611C24.189 44.9455 25.6737 44.9455 26.5893 45.8611L27.4428 46.7145L33.3192 40.8382C34.2347 39.9226 35.7193 39.9226 36.635 40.8382C37.5505 41.7537 37.5505 43.2383 36.6348 44.154ZM36.6348 27.8299L29.1006 35.364C28.1848 36.2798 26.7003 36.2795 25.7848 35.364L23.2735 32.8527C22.3578 31.9372 22.3578 30.4525 23.2735 29.5368C24.189 28.6213 25.6737 28.6213 26.5893 29.5368L27.4428 30.3903L33.3192 24.5141C35.6063 22.4019 38.7461 25.5451 36.6348 27.8299ZM55.068 66.1878H45.0224C41.9115 66.0638 41.9138 61.6212 45.0224 61.4984H55.068C58.1789 61.6222 58.1766 66.0651 55.068 66.1878ZM55.068 49.8636H45.0224C41.9115 49.7396 41.9138 45.2969 45.0224 45.1742H55.068C58.1789 45.2982 58.1766 49.7409 55.068 49.8636ZM55.068 33.5395H45.0224C41.9115 33.4156 41.9138 28.9729 45.0224 28.8502H55.068C58.1789 28.974 58.1766 33.4166 55.068 33.5395Z" fill="#084C2E" style="mix-blend-mode:lighten"/>
<path d="M29.954 15.037H50.0452C51.3401 15.037 52.3899 13.9872 52.3899 12.6923V7.33612C52.3899 6.04124 51.3401 4.99145 50.0452 4.99145H46.9846C44.722 -1.66366 35.2746 -1.66397 33.0143 4.99145H29.954C28.6592 4.99145 27.6094 6.04124 27.6094 7.33612V12.6924C27.6094 13.9873 28.6592 15.037 29.954 15.037Z" fill="#084C2E" style="mix-blend-mode:lighten"/>
</g>
<defs>
<clipPath id="clip0_9764_14203">
<rect width="80" height="80" fill="white"/>
</clipPath>
</defs>
</svg>

